<svg width="27" height="21" viewBox="0 0 27 21" fill="none" xmlns="http://www.w3.org/2000/svg">
<path d="M8.48138 20.4375C18.6705 20.4375 24.2443 12.6203 24.2443 5.85314C24.2443 5.63439 24.2443 5.41251 24.2342 5.19376C25.3193 4.4664 26.2559 3.56588 27 2.53439C25.9863 2.94822 24.9122 3.22096 23.8123 3.34376C24.9708 2.70257 25.8385 1.69372 26.2541 0.504702C25.1657 1.10177 23.9743 1.52091 22.7323 1.74376C21.8973 0.920364 20.7924 0.374886 19.5886 0.191823C18.3849 0.00876062 17.1496 0.19833 16.074 0.731167C14.9984 1.264 14.1426 2.11037 13.6391 3.13917C13.1357 4.16797 13.0126 5.32178 13.2891 6.42189C11.0864 6.31963 8.93163 5.78981 6.96438 4.8668C4.99714 3.94379 3.2614 2.64821 1.86975 1.06408C1.16326 2.19389 0.947656 3.53033 1.26672 4.80199C1.58577 6.07366 2.41558 7.18522 3.58762 7.91095C2.70935 7.88332 1.85038 7.66495 1.08 7.27345V7.34377C1.08151 8.52733 1.52433 9.67411 2.3336 10.5903C3.14287 11.5064 4.26895 12.1358 5.5215 12.3719C5.04607 12.4932 4.55495 12.5536 4.06181 12.5516C3.71416 12.5526 3.3672 12.5227 3.02569 12.4625C3.3797 13.4814 4.06902 14.3721 4.9971 15.0101C5.92518 15.6481 7.04554 16.0013 8.20125 16.0203C6.23794 17.4481 3.81274 18.2225 1.31625 18.2188C0.876354 18.2205 0.436764 18.197 0 18.1485C2.53381 19.6442 5.47644 20.4384 8.48138 20.4375V20.4375Z" fill="white"/>
</svg>
