<svg width="26" height="25" viewBox="0 0 26 25" fill="none" xmlns="http://www.w3.org/2000/svg">
<path d="M0 12.5C0 17.8365 3.47858 22.3927 8.37417 24.1854C8.255 23.2094 8.12825 21.6 8.40125 20.4708C8.63633 19.5 9.919 14.2854 9.919 14.2854C9.919 14.2854 9.53225 13.5406 9.53225 12.4375C9.53225 10.7083 10.5744 9.41667 11.8733 9.41667C12.9783 9.41667 13.5113 10.2135 13.5113 11.1687C13.5113 12.2365 12.8039 13.8323 12.4388 15.3125C12.1344 16.551 13.0856 17.5615 14.3553 17.5615C16.6552 17.5615 18.4243 15.2292 18.4243 11.8625C18.4243 8.88229 16.1969 6.8 13.0173 6.8C9.33617 6.8 7.17492 9.45521 7.17492 12.2C7.17492 13.2698 7.60283 14.4156 8.138 15.0396C8.18363 15.0867 8.21586 15.1443 8.23161 15.2069C8.24736 15.2695 8.24609 15.3349 8.22792 15.3969C8.12933 15.7906 7.9105 16.6354 7.86825 16.8083C7.81083 17.0354 7.68083 17.0844 7.43492 16.974C5.81858 16.251 4.80892 13.9792 4.80892 12.1542C4.80892 8.22812 7.774 4.62396 13.3586 4.62396C17.8479 4.62396 21.3373 7.7 21.3373 11.8104C21.3373 16.099 18.5261 19.551 14.6217 19.551C13.3098 19.551 12.0781 18.8948 11.6556 18.1208C11.6556 18.1208 11.0067 20.4979 10.8496 21.0792C10.5441 22.2083 9.69692 23.6375 9.1715 24.449C10.3827 24.8073 11.6675 25 13 25C20.1793 25 26 19.4031 26 12.5C26 5.59687 20.1793 0 13 0C5.82075 0 0 5.59687 0 12.5Z" fill="white"/>
</svg>
