<svg width="26" height="26" viewBox="0 0 26 26" fill="none" xmlns="http://www.w3.org/2000/svg">
<path fill-rule="evenodd" clip-rule="evenodd" d="M7.71432 0.301634C9.05288 0.240012 9.47967 0.226318 12.8894 0.226318C16.2992 0.226318 16.726 0.241153 18.0634 0.301634C19.4008 0.362115 20.3137 0.57551 21.1125 0.884761C21.949 1.20086 22.7079 1.69498 23.3355 2.33402C23.9745 2.96051 24.4675 3.71823 24.7825 4.55584C25.0929 5.35464 25.3051 6.26756 25.3667 7.6027C25.4284 8.94355 25.4421 9.37034 25.4421 12.7789C25.4421 16.1887 25.4272 16.6155 25.3667 17.9541C25.3063 19.2892 25.0929 20.2021 24.7825 21.0009C24.4675 21.8386 23.9737 22.5976 23.3355 23.225C22.7079 23.8641 21.949 24.357 21.1125 24.672C20.3137 24.9824 19.4008 25.1946 18.0657 25.2563C16.726 25.3179 16.2992 25.3316 12.8894 25.3316C9.47967 25.3316 9.05288 25.3167 7.71432 25.2563C6.37917 25.1958 5.46625 24.9824 4.66745 24.672C3.82976 24.357 3.07078 23.8632 2.44335 23.225C1.80474 22.5982 1.31055 21.8395 0.995235 21.0021C0.685983 20.2033 0.47373 19.2903 0.412108 17.9552C0.350486 16.6143 0.336792 16.1876 0.336792 12.7789C0.336792 9.3692 0.351627 8.94241 0.412108 7.60498C0.472589 6.26756 0.685983 5.35464 0.995235 4.55584C1.31102 3.71833 1.80559 2.95973 2.44449 2.33288C3.07103 1.69441 3.82924 1.20022 4.66631 0.884761C5.46511 0.57551 6.37803 0.363256 7.71317 0.301634H7.71432ZM17.9618 2.56111C16.6381 2.50063 16.241 2.48807 12.8894 2.48807C9.53787 2.48807 9.14075 2.50063 7.81702 2.56111C6.59257 2.61702 5.92842 2.82129 5.48565 2.9936C4.90024 3.22183 4.48144 3.49229 4.0421 3.93163C3.62563 4.33679 3.30512 4.83003 3.10408 5.37518C2.93176 5.81795 2.7275 6.48209 2.67158 7.70655C2.6111 9.03028 2.59855 9.4274 2.59855 12.7789C2.59855 16.1305 2.6111 16.5276 2.67158 17.8514C2.7275 19.0758 2.93176 19.74 3.10408 20.1827C3.30492 20.727 3.62558 21.2212 4.0421 21.6263C4.44721 22.0428 4.94133 22.3635 5.48565 22.5643C5.92842 22.7366 6.59257 22.9409 7.81702 22.9968C9.14075 23.0573 9.53673 23.0698 12.8894 23.0698C16.2421 23.0698 16.6381 23.0573 17.9618 22.9968C19.1863 22.9409 19.8504 22.7366 20.2932 22.5643C20.8786 22.3361 21.2974 22.0656 21.7367 21.6263C22.1533 21.2212 22.4739 20.727 22.6748 20.1827C22.8471 19.74 23.0513 19.0758 23.1073 17.8514C23.1677 16.5276 23.1803 16.1305 23.1803 12.7789C23.1803 9.4274 23.1677 9.03028 23.1073 7.70655C23.0513 6.48209 22.8471 5.81795 22.6748 5.37518C22.4465 4.78977 22.1761 4.37097 21.7367 3.93163C21.3316 3.51519 20.8383 3.19469 20.2932 2.9936C19.8504 2.82129 19.1863 2.61702 17.9618 2.56111ZM11.2861 16.6486C12.1815 17.0213 13.1786 17.0716 14.1069 16.7909C15.0353 16.5102 15.8375 15.9159 16.3763 15.1095C16.9152 14.303 17.1574 13.3345 17.0615 12.3694C16.9656 11.4043 16.5377 10.5023 15.8507 9.81767C15.4128 9.38001 14.8833 9.0449 14.3003 8.83645C13.7173 8.628 13.0953 8.55141 12.4792 8.61218C11.863 8.67295 11.268 8.86958 10.737 9.18791C10.206 9.50623 9.75211 9.93834 9.40813 10.4531C9.06414 10.9679 8.83856 11.5525 8.74764 12.165C8.65672 12.7774 8.70272 13.4024 8.88233 13.9949C9.06193 14.5874 9.37067 15.1327 9.78632 15.5916C10.202 16.0504 10.7142 16.4114 11.2861 16.6486ZM8.32711 8.21664C8.92624 7.61751 9.63752 7.14225 10.4203 6.818C11.2031 6.49376 12.0421 6.32687 12.8894 6.32687C13.7367 6.32687 14.5757 6.49376 15.3585 6.818C16.1413 7.14225 16.8526 7.61751 17.4517 8.21664C18.0509 8.81577 18.5261 9.52704 18.8504 10.3098C19.1746 11.0926 19.3415 11.9317 19.3415 12.7789C19.3415 13.6262 19.1746 14.4653 18.8504 15.2481C18.5261 16.0309 18.0509 16.7421 17.4517 17.3413C16.2417 18.5513 14.6006 19.231 12.8894 19.231C11.1782 19.231 9.53711 18.5513 8.32711 17.3413C7.11711 16.1313 6.43734 14.4901 6.43734 12.7789C6.43734 11.0678 7.11711 9.42664 8.32711 8.21664ZM20.7725 7.28774C20.9209 7.14769 21.0398 6.97927 21.122 6.79246C21.2042 6.60564 21.2481 6.40423 21.2511 6.20015C21.2541 5.99607 21.2161 5.79346 21.1393 5.60433C21.0626 5.4152 20.9487 5.24339 20.8044 5.09907C20.6601 4.95474 20.4882 4.84085 20.2991 4.76411C20.11 4.68738 19.9074 4.64938 19.7033 4.65236C19.4992 4.65533 19.2978 4.69922 19.111 4.78144C18.9242 4.86365 18.7558 4.98251 18.6157 5.13097C18.3433 5.41972 18.1942 5.80325 18.2 6.20015C18.2058 6.59705 18.366 6.97607 18.6467 7.25675C18.9274 7.53744 19.3064 7.69768 19.7033 7.70346C20.1002 7.70925 20.4837 7.56012 20.7725 7.28774Z" fill="white"/>
</svg>
