<svg width="27" height="22" viewBox="0 0 27 22" fill="none" xmlns="http://www.w3.org/2000/svg">
<path d="M26.4365 18.5634C26.2828 19.2288 25.9814 19.8357 25.5626 20.3233C25.1438 20.8108 24.6221 21.1619 24.0499 21.3414C21.9435 22 13.5 22 13.5 22C13.5 22 5.05647 22 2.95011 21.3449C2.37763 21.166 1.85572 20.8151 1.4368 20.3274C1.01788 19.8398 0.716703 19.2326 0.563504 18.5669C-1.14952e-07 16.1146 0 11 0 11C0 11 -1.14952e-07 5.88535 0.563504 3.43662C0.873884 2.08439 1.78996 1.01943 2.95011 0.658598C5.05647 0 13.5 0 13.5 0C13.5 0 21.9435 0 24.0499 0.658598C25.2131 1.01943 26.1261 2.08439 26.4365 3.43662C27 5.88535 27 11 27 11C27 11 27 16.1146 26.4365 18.5634ZM10.8181 6.30573V15.6943L17.8092 11.035L10.8181 6.30573Z" fill="white"/>
</svg>
